{"title":"Nikos Koundouros - Mikres Afrodites (1963) DVDRip XviD","uid":9195152,"size":1174403709,"categoryP":"video","categoryS":"movies","magnet":"?xt=urn:btih:3408f2982a34286aa4038ee58251e50674269e45&amp;dn=Nikos+Koundouros+-+Mikres+Afrodites+%281963%29+DVDRip+XviD&amp;tr=udp%3A%2F%2Ftracker.openbittorrent.com%3A80&amp;tr=udp%3A%2F%2Fopen.demonii.com%3A1337&amp;tr=udp%3A%2F%2Ftracker.coppersurfer.tk%3A6969&amp;tr=udp%3A%2F%2Fexodus.desync.com%3A6969","seeders":2,"leechers":2,"uploader":"rpessoa","files":4,"time":1384473914,"description":"Parallel stories of Eros set in 200 B.C. Nomadic shepherds, plagued by drought, happen on a fishing encampment with plentiful fresh water. The local men are away but will return when it rains; the shepherds stay to refresh their flock until the rain comes. A shepherd lad and a local girl, both on the verge of puberty, start a mating dance. Also, one of the shepherds approaches a beautiful local woman, inviting her to sleep with him. How will she respond? She's married, her husband at sea for the week. Is love forever or temporary? A subtext dramatizes the capture of fish, birds, foxes, and other animals: their fates seem arbitrary. From IMDb.\n\nSubs: English, Spanish, Portuguese\n &lt;a href=&quot;\nhttp://www.imdb.com/title/tt0057307/&quot; rel=&quot;nofollow&quot; target=&quot;_NEW&quot;&gt;\nhttp://www.imdb.com/title/tt0057307/&lt;/a&gt;\n\nGeneral\nComplete name                            : Mikres Afrodites (1963) - Multisubs/Mikres Afrodites(Young Aphrodites)-1963-Nikos Koundouros.avi\nFormat                                   : AVI\nFormat/Info                              : Audio Video Interleave\nFile size                                : 1.09 GiB\nDuration                                 : 1h 31mn\nOverall bit rate                         : 1 710 Kbps\nWriting application                      : VirtualDubMod 1.5.4.1 (build 2178/release)\nWriting library                          : VirtualDubMod build 2178/release\n\nVideo\nID                                       : 0\nFormat                                   : MPEG-4 Visual\nFormat profile                           : Advanced Simple@L5\nFormat settings, BVOP                    : 1\nFormat settings, QPel                    : No\nFormat settings, GMC                     : No warppoints\nFormat settings, Matrix                  : Custom\nCodec ID                                 : XVID\nCodec ID/Hint                            : XviD\nDuration                                 : 1h 31mn\nBit rate                                 : 1 511 Kbps\nWidth                                    : 640 pixels\nHeight                                   : 480 pixels\nDisplay aspect ratio                     : 4:3\nFrame rate                               : 23.976 fps\nColor space                              : YUV\nChroma subsampling                       : 4:2:0\nBit depth                                : 8 bits\nScan type                                : Progressive\nCompression mode                         : Lossy\nBits/(Pixel*Frame)                       : 0.205\nStream size                              : 990 MiB (88%)\nWriting library                          : XviD 1.1.2 (UTC 2006-11-01)\n\nAudio\nID                                       : 1\nFormat                                   : AC-3\nFormat/Info                              : Audio Coding 3\nMode extension                           : CM (complete main)\nCodec ID                                 : 2000\nDuration                                 : 1h 31mn\nBit rate mode                            : Constant\nBit rate                                 : 192 Kbps\nChannel(s)                               : 2 channels\nChannel positions                        : Front: L R\nSampling rate                            : 48.0 KHz\nBit depth                                : 16 bits\nCompression mode                         : Lossy\nStream size                              : 126 MiB (11%)\nAlignment                                : Split accross interleaves\nInterleave, duration                     : 96 ms (2.30 video frames)\nInterleave, preload duration             : 96 ms\nLanguage                                 : English\n","torrent":{"xt":"urn:btih:3408f2982a34286aa4038ee58251e50674269e45","amp;dn":"Nikos+Koundouros+-+Mikres+Afrodites+%281963%29+DVDRip+XviD","amp;tr":["udp%3A%2F%2Ftracker.openbittorrent.com%3A80","udp%3A%2F%2Fopen.demonii.com%3A1337","udp%3A%2F%2Ftracker.coppersurfer.tk%3A6969","udp%3A%2F%2Fexodus.desync.com%3A6969"],"infoHash":"3408f2982a34286aa4038ee58251e50674269e45","infoHashBuffer":{"type":"Buffer","data":[52,8,242,152,42,52,40,106,164,3,142,229,130,81,229,6,116,38,158,69]},"announce":[],"urlList":[]}}